<svg id="Capa_1" enable-background="new 0 0 512 512" height="512" viewBox="0 0 512 512" width="512" xmlns="http://www.w3.org/2000/svg"><g><path d="m165 386.65h45v30h-45z" fill="#283d66"/><path d="m422 35.35v432.599l-25.499-25.8c-68.701-68.398-131.002-105.898-186.501-113.699l-30-65.099 3.9-11.7 26.1-76.8c55.499-7.8 117.8-45.3 186.501-113.701z" fill="#e6f2ff"/><path d="m452 236.65h60v30h-60z" fill="#ffea80"/><path d="m447.458 161.651h54.083v29.999h-54.083z" fill="#ffea80" transform="matrix(.832 -.555 .555 .832 -18.296 292.874)"/><path d="m459.5 299.609h29.999v54.083h-29.999z" fill="#fc6" transform="matrix(.555 -.832 .832 .555 -60.495 540.265)"/><path d="m75.293 314.595 32.417 162.055h72.29v-165z" fill="#405580"/><path d="m422 251.65v216.299l-25.499-25.8c-68.701-68.398-131.002-105.898-186.501-113.699l-30-65.099 3.9-11.7h238.1z" fill="#cce6ff"/><path d="m452 251.65h60v15h-60z" fill="#fc6"/><path d="m187.8 176.65h-112.8c-41.4 0-75 33.6-75 75s33.6 75 75 75h112.8c7.5 0 14.7.599 22.2 1.8v-153.6c-7.5 1.2-14.7 1.8-22.2 1.8z" fill="#ff8066"/><path d="m0 251.65h210v76.8c-7.5-1.201-14.7-1.8-22.2-1.8h-112.8c-41.4 0-75-33.6-75-75z" fill="#e63950"/></g></svg>